<svg xmlns="http://www.w3.org/2000/svg" xmlns:xlink="http://www.w3.org/1999/xlink" viewBox="0 0 31.6 31.6"><defs><style>.cls-1{fill:#00223b;}.cls-2{fill:url(#Sfumatura_senza_nome_470);}.cls-3{fill:url(#Degradado_sin_nombre_31);}.cls-4{fill:url(#Sfumatura_senza_nome_261);}.cls-5{fill:url(#Degradado_sin_nombre_5);}</style><linearGradient id="Sfumatura_senza_nome_470" x1="15.8" y1="26.44" x2="15.8" y2="4.33" gradientUnits="userSpaceOnUse"><stop offset="0" stop-color="#09f"/><stop offset="0.1" stop-color="#0fb2ff"/><stop offset="0.23" stop-color="#20ceff"/><stop offset="0.38" stop-color="#2de4ff"/><stop offset="0.55" stop-color="#37f3ff"/><stop offset="0.73" stop-color="#3cfcff"/><stop offset="1" stop-color="#3effff"/></linearGradient><linearGradient id="Degradado_sin_nombre_31" x1="15.8" y1="26.44" x2="15.8" y2="4.33" gradientUnits="userSpaceOnUse"><stop offset="0" stop-color="#7d33a9"/><stop offset="0.12" stop-color="#a832c4"/><stop offset="0.25" stop-color="#ce32db"/><stop offset="0.37" stop-color="#e931ec"/><stop offset="0.48" stop-color="#f931f6"/><stop offset="0.56" stop-color="#ff31fa"/></linearGradient><linearGradient id="Sfumatura_senza_nome_261" x1="15.8" y1="21.97" x2="15.8" y2="8.8" gradientUnits="userSpaceOnUse"><stop offset="0" stop-color="#531db5"/><stop offset="1" stop-color="#8733ff"/></linearGradient><linearGradient id="Degradado_sin_nombre_5" x1="15.8" y1="21.97" x2="15.8" y2="8.8" xlink:href="#Sfumatura_senza_nome_470"/></defs><g id="Capa_2" data-name="Capa 2"><g id="Capa_1-2" data-name="Capa 1"><rect class="cls-1" width="31.6" height="31.6" rx="15.8"/><path class="cls-2" d="M13,7.05,15.8,4.33l2.79,2.72L15.8,11.89ZM15.8,18.88,13,23.71l2.79,2.73,2.79-2.73Z"/><path class="cls-3" d="M13,7.05,15.8,4.33l2.79,2.72L15.8,11.89ZM15.8,18.88,13,23.71l2.79,2.73,2.79-2.73Z"/><path class="cls-4" d="M21.62,8.8l3.75,1.06-1,3.78H18.83Zm-8.85,8.33H7.19l-1,3.78L10,22Z"/><path class="cls-5" d="M7.19,13.64l-1-3.78L10,8.8l2.79,4.84Zm11.64,3.49L21.62,22l3.75-1.06-1-3.78Z"/></g></g></svg>